<mxfile host="app.diagrams.net" agent="Mozilla/5.0 (X11; Ubuntu; Linux x86_64; rv:139.0) Gecko/20100101 Firefox/139.0" version="27.1.4">
  <diagram name="Page-1" id="uWDYa1F8MqRevSzc-OAt">
    <mxGraphModel dx="1426" dy="748" grid="1" gridSize="10" guides="1" tooltips="1" connect="1" arrows="1" fold="1" page="1" pageScale="1" pageWidth="850" pageHeight="1100" math="0" shadow="0">
      <root>
        <mxCell id="0" />
        <mxCell id="1" parent="0" />
        <mxCell id="pzyhARDanW6f2dQaXnZ1-1" value="Stock Analysis Tool" style="rounded=0;whiteSpace=wrap;html=1;labelPosition=center;verticalLabelPosition=middle;align=center;verticalAlign=middle;spacingBottom=500;fontSize=18;" parent="1" vertex="1">
          <mxGeometry x="240" y="80" width="420" height="560" as="geometry" />
        </mxCell>
        <mxCell id="pzyhARDanW6f2dQaXnZ1-2" value="Make analysis Request" style="ellipse;whiteSpace=wrap;html=1;" parent="1" vertex="1">
          <mxGeometry x="530" y="220" width="120" height="50" as="geometry" />
        </mxCell>
        <mxCell id="pzyhARDanW6f2dQaXnZ1-3" value="&lt;div&gt;Login&lt;/div&gt;" style="ellipse;whiteSpace=wrap;html=1;" parent="1" vertex="1">
          <mxGeometry x="530" y="140" width="120" height="50" as="geometry" />
        </mxCell>
        <mxCell id="pzyhARDanW6f2dQaXnZ1-4" value="&lt;div&gt;User&lt;/div&gt;" style="shape=umlActor;verticalLabelPosition=bottom;verticalAlign=top;html=1;outlineConnect=0;" parent="1" vertex="1">
          <mxGeometry x="750" y="170" width="30" height="60" as="geometry" />
        </mxCell>
        <mxCell id="pzyhARDanW6f2dQaXnZ1-5" value="&lt;div&gt;User DB&lt;/div&gt;" style="shape=umlActor;verticalLabelPosition=bottom;verticalAlign=top;html=1;outlineConnect=0;" parent="1" vertex="1">
          <mxGeometry x="750" y="60" width="30" height="60" as="geometry" />
        </mxCell>
        <mxCell id="pzyhARDanW6f2dQaXnZ1-6" value="Individual Stock DB" style="shape=umlActor;verticalLabelPosition=bottom;verticalAlign=top;html=1;outlineConnect=0;" parent="1" vertex="1">
          <mxGeometry x="750" y="290" width="30" height="60" as="geometry" />
        </mxCell>
        <mxCell id="pzyhARDanW6f2dQaXnZ1-7" value="Stock Data Source" style="shape=umlActor;verticalLabelPosition=bottom;verticalAlign=top;html=1;outlineConnect=0;" parent="1" vertex="1">
          <mxGeometry x="750" y="410" width="30" height="60" as="geometry" />
        </mxCell>
        <mxCell id="pzyhARDanW6f2dQaXnZ1-8" value="" style="endArrow=none;html=1;rounded=0;" parent="1" source="pzyhARDanW6f2dQaXnZ1-3" target="pzyhARDanW6f2dQaXnZ1-4" edge="1">
          <mxGeometry width="50" height="50" relative="1" as="geometry">
            <mxPoint x="400" y="420" as="sourcePoint" />
            <mxPoint x="450" y="370" as="targetPoint" />
          </mxGeometry>
        </mxCell>
        <mxCell id="pzyhARDanW6f2dQaXnZ1-9" value="" style="endArrow=none;html=1;rounded=0;" parent="1" source="pzyhARDanW6f2dQaXnZ1-4" target="pzyhARDanW6f2dQaXnZ1-2" edge="1">
          <mxGeometry width="50" height="50" relative="1" as="geometry">
            <mxPoint x="110.0001838198894" y="411.4564522101291" as="sourcePoint" />
            <mxPoint x="264.82" y="461" as="targetPoint" />
            <Array as="points" />
          </mxGeometry>
        </mxCell>
        <mxCell id="pzyhARDanW6f2dQaXnZ1-10" value="" style="endArrow=none;html=1;rounded=0;" parent="1" source="pzyhARDanW6f2dQaXnZ1-3" target="pzyhARDanW6f2dQaXnZ1-5" edge="1">
          <mxGeometry width="50" height="50" relative="1" as="geometry">
            <mxPoint x="400" y="420" as="sourcePoint" />
            <mxPoint x="450" y="370" as="targetPoint" />
          </mxGeometry>
        </mxCell>
        <mxCell id="pzyhARDanW6f2dQaXnZ1-11" value="" style="endArrow=none;html=1;rounded=0;" parent="1" source="pzyhARDanW6f2dQaXnZ1-6" target="pzyhARDanW6f2dQaXnZ1-2" edge="1">
          <mxGeometry width="50" height="50" relative="1" as="geometry">
            <mxPoint x="400" y="420" as="sourcePoint" />
            <mxPoint x="450" y="370" as="targetPoint" />
          </mxGeometry>
        </mxCell>
        <mxCell id="pzyhARDanW6f2dQaXnZ1-12" value="" style="endArrow=none;html=1;rounded=0;" parent="1" source="pzyhARDanW6f2dQaXnZ1-7" target="pzyhARDanW6f2dQaXnZ1-2" edge="1">
          <mxGeometry width="50" height="50" relative="1" as="geometry">
            <mxPoint x="689.66" y="440.74" as="sourcePoint" />
            <mxPoint x="550.0011744761113" y="279.2594829880038" as="targetPoint" />
          </mxGeometry>
        </mxCell>
        <mxCell id="pzyhARDanW6f2dQaXnZ1-14" value="&lt;div&gt;Establish Variables and weights&lt;/div&gt;" style="ellipse;whiteSpace=wrap;html=1;" parent="1" vertex="1">
          <mxGeometry x="450" y="310" width="120" height="50" as="geometry" />
        </mxCell>
        <mxCell id="pzyhARDanW6f2dQaXnZ1-15" value="" style="endArrow=classic;html=1;rounded=0;dashed=1;" parent="1" source="pzyhARDanW6f2dQaXnZ1-2" target="pzyhARDanW6f2dQaXnZ1-14" edge="1">
          <mxGeometry width="50" height="50" relative="1" as="geometry">
            <mxPoint x="400" y="420" as="sourcePoint" />
            <mxPoint x="450" y="370" as="targetPoint" />
          </mxGeometry>
        </mxCell>
        <mxCell id="pzyhARDanW6f2dQaXnZ1-16" value="&lt;div&gt;Analyze Stock data&lt;/div&gt;" style="ellipse;whiteSpace=wrap;html=1;" parent="1" vertex="1">
          <mxGeometry x="520" y="370" width="120" height="50" as="geometry" />
        </mxCell>
        <mxCell id="pzyhARDanW6f2dQaXnZ1-17" value="" style="endArrow=none;html=1;rounded=0;" parent="1" source="pzyhARDanW6f2dQaXnZ1-7" target="pzyhARDanW6f2dQaXnZ1-16" edge="1">
          <mxGeometry width="50" height="50" relative="1" as="geometry">
            <mxPoint x="400" y="420" as="sourcePoint" />
            <mxPoint x="450" y="370" as="targetPoint" />
          </mxGeometry>
        </mxCell>
        <mxCell id="pzyhARDanW6f2dQaXnZ1-18" value="" style="endArrow=classic;html=1;rounded=0;dashed=1;" parent="1" source="pzyhARDanW6f2dQaXnZ1-2" target="pzyhARDanW6f2dQaXnZ1-16" edge="1">
          <mxGeometry width="50" height="50" relative="1" as="geometry">
            <mxPoint x="546" y="266" as="sourcePoint" />
            <mxPoint x="504" y="274" as="targetPoint" />
          </mxGeometry>
        </mxCell>
        <mxCell id="pzyhARDanW6f2dQaXnZ1-19" value="" style="endArrow=none;html=1;rounded=0;" parent="1" source="pzyhARDanW6f2dQaXnZ1-16" target="pzyhARDanW6f2dQaXnZ1-6" edge="1">
          <mxGeometry width="50" height="50" relative="1" as="geometry">
            <mxPoint x="400" y="420" as="sourcePoint" />
            <mxPoint x="450" y="370" as="targetPoint" />
          </mxGeometry>
        </mxCell>
        <mxCell id="pzyhARDanW6f2dQaXnZ1-21" value="&lt;div&gt;User&lt;/div&gt;" style="shape=umlActor;verticalLabelPosition=bottom;verticalAlign=top;html=1;outlineConnect=0;" parent="1" vertex="1">
          <mxGeometry x="60" y="170" width="30" height="60" as="geometry" />
        </mxCell>
        <mxCell id="pzyhARDanW6f2dQaXnZ1-22" value="Individual Stock DB" style="shape=umlActor;verticalLabelPosition=bottom;verticalAlign=top;html=1;outlineConnect=0;" parent="1" vertex="1">
          <mxGeometry x="60" y="290" width="30" height="60" as="geometry" />
        </mxCell>
        <mxCell id="pzyhARDanW6f2dQaXnZ1-23" value="&lt;div&gt;External Stock Tester&lt;/div&gt;" style="shape=umlActor;verticalLabelPosition=bottom;verticalAlign=top;html=1;outlineConnect=0;" parent="1" vertex="1">
          <mxGeometry x="60" y="410" width="30" height="60" as="geometry" />
        </mxCell>
        <mxCell id="pzyhARDanW6f2dQaXnZ1-25" value="Test Stock" style="ellipse;whiteSpace=wrap;html=1;" parent="1" vertex="1">
          <mxGeometry x="260" y="160" width="120" height="50" as="geometry" />
        </mxCell>
        <mxCell id="afTF3J2cmXFbgFEyLgX3-1" value="" style="endArrow=none;html=1;rounded=0;" edge="1" parent="1" source="pzyhARDanW6f2dQaXnZ1-21" target="pzyhARDanW6f2dQaXnZ1-25">
          <mxGeometry width="50" height="50" relative="1" as="geometry">
            <mxPoint x="400" y="420" as="sourcePoint" />
            <mxPoint x="450" y="370" as="targetPoint" />
          </mxGeometry>
        </mxCell>
        <mxCell id="afTF3J2cmXFbgFEyLgX3-3" value="" style="endArrow=none;html=1;rounded=0;" edge="1" parent="1" source="pzyhARDanW6f2dQaXnZ1-23" target="pzyhARDanW6f2dQaXnZ1-25">
          <mxGeometry width="50" height="50" relative="1" as="geometry">
            <mxPoint x="400" y="420" as="sourcePoint" />
            <mxPoint x="450" y="370" as="targetPoint" />
          </mxGeometry>
        </mxCell>
        <mxCell id="afTF3J2cmXFbgFEyLgX3-4" value="Check for known patterns" style="ellipse;whiteSpace=wrap;html=1;" vertex="1" parent="1">
          <mxGeometry x="260" y="295" width="120" height="50" as="geometry" />
        </mxCell>
        <mxCell id="afTF3J2cmXFbgFEyLgX3-5" value="" style="endArrow=none;html=1;rounded=0;" edge="1" parent="1" source="pzyhARDanW6f2dQaXnZ1-22" target="afTF3J2cmXFbgFEyLgX3-4">
          <mxGeometry width="50" height="50" relative="1" as="geometry">
            <mxPoint x="400" y="420" as="sourcePoint" />
            <mxPoint x="450" y="370" as="targetPoint" />
          </mxGeometry>
        </mxCell>
        <mxCell id="afTF3J2cmXFbgFEyLgX3-6" value="" style="endArrow=classic;html=1;rounded=0;dashed=1;" edge="1" parent="1" source="pzyhARDanW6f2dQaXnZ1-25" target="afTF3J2cmXFbgFEyLgX3-4">
          <mxGeometry width="50" height="50" relative="1" as="geometry">
            <mxPoint x="400" y="420" as="sourcePoint" />
            <mxPoint x="450" y="370" as="targetPoint" />
          </mxGeometry>
        </mxCell>
        <mxCell id="afTF3J2cmXFbgFEyLgX3-7" value="Live Run" style="ellipse;whiteSpace=wrap;html=1;" vertex="1" parent="1">
          <mxGeometry x="260" y="390" width="120" height="50" as="geometry" />
        </mxCell>
        <mxCell id="afTF3J2cmXFbgFEyLgX3-8" value="" style="endArrow=classic;html=1;rounded=0;dashed=1;" edge="1" parent="1" source="afTF3J2cmXFbgFEyLgX3-7" target="afTF3J2cmXFbgFEyLgX3-4">
          <mxGeometry width="50" height="50" relative="1" as="geometry">
            <mxPoint x="333" y="220" as="sourcePoint" />
            <mxPoint x="337" y="260" as="targetPoint" />
          </mxGeometry>
        </mxCell>
        <mxCell id="afTF3J2cmXFbgFEyLgX3-9" value="Live Stock Feed" style="shape=umlActor;verticalLabelPosition=bottom;verticalAlign=top;html=1;outlineConnect=0;" vertex="1" parent="1">
          <mxGeometry x="140" y="510" width="30" height="60" as="geometry" />
        </mxCell>
        <mxCell id="afTF3J2cmXFbgFEyLgX3-10" value="" style="endArrow=none;html=1;rounded=0;" edge="1" parent="1" source="afTF3J2cmXFbgFEyLgX3-9" target="afTF3J2cmXFbgFEyLgX3-7">
          <mxGeometry width="50" height="50" relative="1" as="geometry">
            <mxPoint x="400" y="420" as="sourcePoint" />
            <mxPoint x="450" y="370" as="targetPoint" />
          </mxGeometry>
        </mxCell>
      </root>
    </mxGraphModel>
  </diagram>
</mxfile>
